<svg xmlns="http://www.w3.org/2000/svg" version="1.1" xmlns:xlink="http://www.w3.org/1999/xlink" viewBox="0 0 200 200" width="200" height="200"><metadata><rdf:RDF xmlns:rdf="http://www.w3.org/1999/02/22-rdf-syntax-ns#" xmlns:dc="http://purl.org/dc/elements/1.1/"><rdf:Description><dc:creator>RealFaviconGenerator</dc:creator><dc:source>https://realfavicongenerator.net</dc:source></rdf:Description></rdf:RDF></metadata><rect width="200" height="200" fill="url('#gradient')"></rect><defs><linearGradient id="gradient" gradientTransform="rotate(45 0.5 0.5)"><stop offset="0%" stop-color="#ffffff"></stop><stop offset="100%" stop-color="#ffffff"></stop></linearGradient></defs><g><g fill="#4c9946" transform="matrix(3.4770797962648556,0,0,3.4770797962648556,8.64031368529453,121.00160093744663)" stroke="#000000" stroke-width="0.2"><path d="M6.10 1.79L5.49 3.52Q1.97 2.53 1.97-1.03L1.97-1.03L1.97-2.96Q1.97-4.93 0.39-4.93L0.39-4.93L0.39-7.15Q1.97-7.15 1.97-9.13L1.97-9.13L1.97-11.18Q2.00-12.94 2.89-14.02Q3.77-15.11 5.49-15.60L5.49-15.60L6.10-13.88Q4.87-13.41 4.82-11.25L4.82-11.25L4.82-9.13Q4.82-6.94 3.02-6.04L3.02-6.04Q4.82-5.15 4.82-2.95L4.82-2.95L4.82-0.84Q4.87 1.32 6.10 1.79L6.10 1.79ZM16.60-14.22L18.58-5.30L20.21-14.22L23.61-14.22L20.60 0L17.04 0L15.14-8.11L13.27 0L9.73 0L6.70-14.22L10.11-14.22L11.74-5.30L13.69-14.22L16.60-14.22ZM25.44-3.19L25.44-3.19Q26.22-3.19 26.74-2.73Q27.26-2.27 27.26-1.54Q27.26-0.82 26.74-0.36Q26.22 0.11 25.44 0.11L25.44 0.11Q24.65 0.11 24.14-0.36Q23.62-0.83 23.62-1.54Q23.62-2.26 24.14-2.72Q24.65-3.19 25.44-3.19ZM38.63-14.22L40.62-5.30L42.25-14.22L45.64-14.22L42.63 0L39.07 0L37.17-8.11L35.30 0L31.76 0L28.73-14.22L32.14-14.22L33.77-5.30L35.72-14.22L38.63-14.22ZM47.06 3.52L46.45 1.79Q47.68 1.32 47.72-0.84L47.72-0.84L47.72-2.96Q47.72-5.16 49.54-6.04L49.54-6.04Q47.72-6.93 47.72-9.13L47.72-9.13L47.72-11.25Q47.68-13.41 46.45-13.88L46.45-13.88L47.06-15.60Q48.81-15.11 49.69-14.00Q50.57-12.89 50.58-11.09L50.58-11.09L50.58-9.13Q50.58-7.15 52.16-7.15L52.16-7.15L52.16-4.93Q50.58-4.93 50.58-2.97L50.58-2.97L50.58-0.89Q50.51 2.55 47.06 3.52L47.06 3.52Z"></path></g></g></svg>